<svg width="30" height="34" viewBox="0 0 30 34" fill="none" xmlns="http://www.w3.org/2000/svg">
<path d="M3.75 34C2.71875 34 1.83625 33.6674 1.1025 33.0021C0.36875 32.3368 0.00125 31.5361 0 30.6V3.4C0 2.465 0.3675 1.66487 1.1025 0.9996C1.8375 0.334333 2.72 0.00113333 3.75 0H26.25C27.2812 0 28.1644 0.3332 28.8994 0.9996C29.6344 1.666 30.0012 2.46613 30 3.4V30.6C30 31.535 29.6331 32.3357 28.8994 33.0021C28.1656 33.6685 27.2825 34.0011 26.25 34H3.75ZM13.125 15.3L17.8125 12.75L22.5 15.3V3.4H13.125V15.3Z" fill="#EDF0EE"/>
</svg>
