<svg width="15" height="15" viewBox="0 0 15 15" fill="none" xmlns="http://www.w3.org/2000/svg">
<path fill-rule="evenodd" clip-rule="evenodd" d="M3.41883 3.41876C3.50672 3.33098 3.62586 3.28168 3.75008 3.28168C3.8743 3.28168 3.99344 3.33098 4.08133 3.41876L11.5813 10.9188C11.6274 10.9617 11.6643 11.0134 11.6899 11.0709C11.7156 11.1284 11.7293 11.1905 11.7304 11.2534C11.7316 11.3164 11.72 11.3789 11.6964 11.4373C11.6728 11.4956 11.6377 11.5487 11.5932 11.5932C11.5487 11.6377 11.4957 11.6728 11.4373 11.6963C11.379 11.7199 11.3164 11.7315 11.2535 11.7304C11.1906 11.7293 11.1285 11.7155 11.071 11.6899C11.0135 11.6643 10.9617 11.6273 10.9188 11.5813L3.41883 4.08126C3.33104 3.99337 3.28174 3.87423 3.28174 3.75001C3.28174 3.6258 3.33104 3.50666 3.41883 3.41876Z" fill="black"/>
<path fill-rule="evenodd" clip-rule="evenodd" d="M11.5813 3.41876C11.6691 3.50666 11.7184 3.6258 11.7184 3.75001C11.7184 3.87423 11.6691 3.99337 11.5813 4.08126L4.08128 11.5813C3.99242 11.6641 3.87489 11.7091 3.75345 11.707C3.63201 11.7049 3.51615 11.6557 3.43026 11.5698C3.34438 11.4839 3.29518 11.368 3.29304 11.2466C3.2909 11.1252 3.33598 11.0076 3.41878 10.9188L10.9188 3.41876C11.0067 3.33098 11.1258 3.28168 11.25 3.28168C11.3742 3.28168 11.4934 3.33098 11.5813 3.41876Z" fill="black"/>
</svg>
