<svg width="30" height="30" viewBox="0 0 30 30" fill="none" xmlns="http://www.w3.org/2000/svg">
<path fill-rule="evenodd" clip-rule="evenodd" d="M25.4998 3.29054V8.64411C26.0908 8.64411 26.676 8.77158 27.222 9.01924C27.768 9.2669 28.264 9.6299 28.6819 10.0875C29.0998 10.5451 29.4313 11.0884 29.6574 11.6863C29.8836 12.2842 30 12.925 30 13.5722C30 14.2194 29.8836 14.8602 29.6574 15.4581C29.4313 16.056 29.0998 16.5993 28.6819 17.0569C28.264 17.5145 27.768 17.8775 27.222 18.1252C26.676 18.3729 26.0908 18.5003 25.4998 18.5003V23.4284C25.4998 26.1356 22.6782 27.6814 20.6996 26.0568L17.6095 23.5171C15.9577 22.1609 14.0345 21.2553 11.9993 20.8757V25.5475C11.9994 26.6214 11.6451 27.6592 11.0016 28.4695C10.3581 29.2799 9.46875 29.8082 8.49756 29.957C7.52637 30.1059 6.53879 29.8652 5.71685 29.2795C4.89491 28.6938 4.29402 27.8024 4.02496 26.7697L1.66986 17.7414C0.822358 16.6454 0.270814 15.3122 0.077231 13.8917C-0.116352 12.4713 0.0557 11.0198 0.574047 9.70059C1.09239 8.38134 1.93649 7.24656 3.01144 6.42382C4.0864 5.60108 5.3496 5.123 6.65906 5.0433L11.1862 4.76733C13.4013 4.63235 15.5554 3.92353 17.4715 2.69917L20.9876 0.451948C22.9887 -0.824432 25.4998 0.754206 25.4998 3.29054ZM5.45002 20.2712L6.90957 25.8679C6.97982 26.1388 7.1372 26.3727 7.35265 26.5264C7.56811 26.6802 7.82709 26.7434 8.08177 26.7043C8.33645 26.6653 8.56963 26.5267 8.73825 26.314C8.90687 26.1014 8.99954 25.8291 8.99916 25.5475V20.603L6.65906 20.4601C6.25183 20.4353 5.84731 20.3721 5.45002 20.2712ZM22.4997 3.29054L18.9821 5.5394C16.845 6.90357 14.4621 7.74108 11.9993 7.9936V17.5525C14.6799 17.9566 17.2315 19.1016 19.4096 20.8888L22.4997 23.4284V3.29054ZM8.99916 8.19072L6.82407 8.32214C5.8122 8.38332 4.85804 8.85769 4.14994 9.65161C3.44183 10.4455 3.03125 11.5013 2.99922 12.6105C2.9672 13.7198 3.31606 14.8018 3.97696 15.6431C4.63785 16.4845 5.56274 17.0239 6.56906 17.155L6.82407 17.1796L8.99916 17.311V8.19072ZM25.4998 11.9295V15.2149C25.8822 15.2145 26.2499 15.0541 26.5279 14.7667C26.8059 14.4793 26.9732 14.0865 26.9956 13.6685C27.018 13.2505 26.8939 12.8389 26.6485 12.5179C26.4031 12.1968 26.055 11.9905 25.6753 11.941L25.4998 11.9295Z" />
</svg>
