<svg width="50" height="54" viewBox="0 0 50 54" fill="none" xmlns="http://www.w3.org/2000/svg">
<path d="M25 0C11.2 0 0 11.928 0 26.625C0 41.322 11.2 53.25 25 53.25C38.8 53.25 50 41.322 50 26.625C50 11.928 38.8 0 25 0ZM25 10.65C29.825 10.65 33.75 14.8301 33.75 19.9688C33.75 25.1074 29.825 29.2875 25 29.2875C20.175 29.2875 16.25 25.1074 16.25 19.9688C16.25 14.8301 20.175 10.65 25 10.65ZM25 47.925C19.925 47.925 13.925 45.7417 9.65 40.257C14.029 36.598 19.4341 34.6093 25 34.6093C30.5659 34.6093 35.971 36.598 40.35 40.257C36.075 45.7417 30.075 47.925 25 47.925Z"/>
</svg>
