<svg width="30" height="30" viewBox="0 0 30 30" fill="none" xmlns="http://www.w3.org/2000/svg">
<path d="M0 3.28164C0 1.47018 1.47 0 3.28125 0H26.7188C28.53 0 30 1.47018 30 3.28164V21.0963C30 21.9666 29.6543 22.8013 29.0389 23.4167C28.4236 24.0322 27.589 24.3779 26.7188 24.3779H15.1125L10.2881 29.2029C9.90572 29.5839 9.4191 29.8431 8.8896 29.948C8.36009 30.0528 7.81141 29.9985 7.31271 29.7919C6.81401 29.5854 6.38762 29.2358 6.08727 28.7872C5.78693 28.3387 5.62608 27.8112 5.625 27.2714V24.3779H3.28125C2.41101 24.3779 1.57641 24.0322 0.961056 23.4167C0.345702 22.8013 0 21.9666 0 21.0963L0 3.28164ZM3.28125 2.81284C3.15693 2.81284 3.0377 2.86223 2.94979 2.95015C2.86189 3.03807 2.8125 3.15731 2.8125 3.28164V21.0963C2.8125 21.3551 3.0225 21.5651 3.28125 21.5651H7.03125C7.40421 21.5651 7.7619 21.7133 8.02562 21.977C8.28934 22.2408 8.4375 22.5985 8.4375 22.9715V27.0782L13.5375 21.9776C13.801 21.7138 14.1584 21.5654 14.5312 21.5651H26.7188C26.8431 21.5651 26.9623 21.5157 27.0502 21.4278C27.1381 21.3399 27.1875 21.2206 27.1875 21.0963V3.28164C27.1875 3.15731 27.1381 3.03807 27.0502 2.95015C26.9623 2.86223 26.8431 2.81284 26.7188 2.81284H3.28125ZM16.4062 7.03209V11.7202C16.4062 12.0932 16.2581 12.4509 15.9944 12.7146C15.7306 12.9784 15.373 13.1266 15 13.1266C14.627 13.1266 14.2694 12.9784 14.0056 12.7146C13.7419 12.4509 13.5938 12.0932 13.5938 11.7202V7.03209C13.5938 6.65909 13.7419 6.30136 14.0056 6.0376C14.2694 5.77385 14.627 5.62567 15 5.62567C15.373 5.62567 15.7306 5.77385 15.9944 6.0376C16.2581 6.30136 16.4062 6.65909 16.4062 7.03209ZM16.875 16.877C16.875 17.3744 16.6775 17.8513 16.3258 18.203C15.9742 18.5547 15.4973 18.7522 15 18.7522C14.5027 18.7522 14.0258 18.5547 13.6742 18.203C13.3225 17.8513 13.125 17.3744 13.125 16.877C13.125 16.3797 13.3225 15.9027 13.6742 15.551C14.0258 15.1994 14.5027 15.0018 15 15.0018C15.4973 15.0018 15.9742 15.1994 16.3258 15.551C16.6775 15.9027 16.875 16.3797 16.875 16.877Z" fill="#ffffff"/>
</svg>
