<svg width="20" height="21" viewBox="0 0 20 21" fill="none" xmlns="http://www.w3.org/2000/svg">
<path d="M9 16.0125C9 15.6644 9.1317 15.3306 9.36612 15.0844C9.60054 14.8383 9.91848 14.7 10.25 14.7C10.5815 14.7 10.8995 14.8383 11.1339 15.0844C11.3683 15.3306 11.5 15.6644 11.5 16.0125C11.5 16.3606 11.3683 16.6944 11.1339 16.9406C10.8995 17.1867 10.5815 17.325 10.25 17.325C9.91848 17.325 9.60054 17.1867 9.36612 16.9406C9.1317 16.6944 9 16.3606 9 16.0125ZM9 10.7625C9 10.4144 9.1317 10.0806 9.36612 9.83443C9.60054 9.58829 9.91848 9.45001 10.25 9.45001C10.5815 9.45001 10.8995 9.58829 11.1339 9.83443C11.3683 10.0806 11.5 10.4144 11.5 10.7625C11.5 11.1106 11.3683 11.4444 11.1339 11.6906C10.8995 11.9367 10.5815 12.075 10.25 12.075C9.91848 12.075 9.60054 11.9367 9.36612 11.6906C9.1317 11.4444 9 11.1106 9 10.7625ZM9 5.51251C9 5.16442 9.1317 4.83058 9.36612 4.58443C9.60054 4.33829 9.91848 4.20001 10.25 4.20001C10.5815 4.20001 10.8995 4.33829 11.1339 4.58443C11.3683 4.83058 11.5 5.16442 11.5 5.51251C11.5 5.86061 11.3683 6.19445 11.1339 6.44059C10.8995 6.68673 10.5815 6.82501 10.25 6.82501C9.91848 6.82501 9.60054 6.68673 9.36612 6.44059C9.1317 6.19445 9 5.86061 9 5.51251Z" fill="#606462"/>
</svg>
